<?xml version="1.0" standalone="no"?>
<!DOCTYPE svg PUBLIC "-//W3C//DTD SVG 20010904//EN"
 "http://www.w3.org/TR/2001/REC-SVG-20010904/DTD/svg10.dtd">
<svg version="1.0" xmlns="http://www.w3.org/2000/svg"
 width="228.000000pt" height="228.000000pt" viewBox="0 0 228.000000 228.000000"
 preserveAspectRatio="xMidYMid meet">
<metadata>
Created by potrace 1.14, written by Peter Selinger 2001-2017
</metadata>
<g transform="translate(0.000000,228.000000) scale(0.100000,-0.100000)"
fill="#000000" stroke="none">
<path d="M679 2217 c-42 -11 -56 -22 -76 -61 -15 -28 -16 -136 -15 -1051 0
-561 1 -1028 1 -1037 1 -17 42 -18 721 -18 783 0 753 -2 798 55 20 26 21 38
21 1021 0 627 -4 1005 -10 1023 -5 15 -24 39 -42 52 l-32 24 -666 0 c-367 0
-682 -3 -700 -8z m542 -143 c24 -12 35 -30 45 -77 11 -48 20 -53 91 -51 37 1
71 2 75 3 3 0 9 19 13 41 4 23 17 53 30 69 l24 28 146 -1 147 -1 35 -68 c40
-77 62 -92 162 -113 35 -8 67 -18 70 -23 5 -7 7 -643 2 -674 0 -4 -20 -16 -43
-27 -62 -28 -121 -63 -135 -80 -7 -8 -13 -10 -13 -5 0 6 -3 6 -8 -1 -4 -5 -25
-23 -47 -40 -22 -16 -53 -41 -70 -56 -61 -54 -78 -68 -84 -68 -3 0 -5 51 -4
113 1 88 -2 114 -14 124 -11 9 13 11 104 8 144 -3 179 10 214 84 47 100 0 201
-147 319 -89 72 -228 100 -338 68 l-58 -17 -21 24 c-61 67 -155 107 -235 100
-86 -7 -190 -80 -231 -160 -12 -24 -28 -43 -37 -43 -27 0 -78 -37 -107 -80
-45 -65 11 -152 88 -138 17 4 25 1 25 -8 0 -8 9 -14 19 -14 11 0 28 -3 38 -7
16 -6 17 -5 3 12 -9 11 -10 16 -2 11 6 -4 12 -4 12 1 0 4 18 8 40 9 44 0 75
22 84 60 4 14 11 22 16 19 6 -4 8 -11 4 -17 -12 -18 -7 -138 7 -154 13 -16 16
-17 -66 17 -89 36 -273 70 -390 72 -7 0 -10 96 -10 278 l0 278 75 17 c90 20
110 32 140 86 13 24 32 55 42 70 l19 27 132 -1 c87 -1 141 -5 158 -14z m44
-410 c59 -27 108 -84 74 -84 -7 0 -38 -27 -70 -61 -32 -33 -56 -53 -52 -44 5
15 -5 16 -100 13 -113 -5 -127 -1 -127 40 0 33 17 62 59 99 64 58 143 71 216
37z m439 -117 c53 -25 154 -113 174 -153 17 -33 22 -75 12 -95 -23 -42 -36
-47 -112 -41 -99 7 -319 7 -393 -1 -33 -3 -70 -4 -83 0 -27 6 -50 47 -47 85 5
76 146 207 242 224 15 3 29 7 31 8 11 12 131 -7 176 -27z m-770 -82 c18 -27
70 -58 80 -48 3 4 6 2 6 -4 0 -15 -28 -24 -36 -12 -3 6 -10 6 -17 1 -7 -5 -21
-6 -32 -2 -11 4 -27 5 -35 1 -19 -8 -42 -7 -58 2 -15 10 0 42 31 70 27 23 42
22 61 -8z m256 -50 c0 -8 -4 -15 -10 -15 -5 0 -7 7 -4 15 4 8 8 15 10 15 2 0
4 -7 4 -15z m-13 -52 c1 -24 0 -25 -6 -8 -7 17 -6 35 2 35 2 0 3 -12 4 -27z
m1 -78 c-3 -3 -9 2 -12 12 -6 14 -5 15 5 6 7 -7 10 -15 7 -18z m-388 -29 c25
-3 52 -7 60 -9 8 -2 33 -7 55 -12 22 -4 46 -12 53 -18 6 -5 12 -7 12 -4 0 9
127 -40 203 -79 198 -100 400 -303 500 -499 60 -119 112 -286 124 -400 9 -83
10 -100 6 -110 -3 -11 -77 -14 -87 -4 -3 2 -8 36 -12 74 -6 73 -11 110 -14
110 -1 0 -3 11 -6 24 -10 54 -57 182 -95 257 -66 129 -186 278 -285 351 -16
12 -50 37 -76 57 -27 20 -48 33 -48 30 0 -3 -12 3 -27 13 -57 39 -210 97 -288
109 -22 3 -43 8 -46 10 -4 2 -33 6 -65 9 -103 10 -99 8 -99 51 -1 21 1 42 2
46 3 6 39 5 133 -6z m471 -70 c5 3 9 0 9 -7 0 -9 28 -10 113 -5 61 3 107 3
102 -1 -16 -12 -12 -148 5 -170 18 -22 13 -18 -73 50 -67 54 -149 108 -227
149 -30 16 -44 27 -32 24 20 -4 23 -1 19 14 -3 14 8 7 35 -20 23 -22 45 -37
49 -34z m334 -157 l0 -149 -46 47 c-25 27 -44 50 -42 52 2 3 9 -1 15 -7 7 -7
14 -12 18 -12 10 0 5 210 -5 211 -5 0 -1 4 10 8 47 19 50 10 50 -150z m469 43
c-3 -54 -3 -54 -14 -47 -5 3 -10 1 -10 -4 0 -6 -5 -11 -11 -11 -38 0 -283
-206 -313 -264 l-13 -26 -27 40 c-14 22 -26 43 -26 46 0 4 -10 15 -22 25 -11
11 -17 19 -13 19 5 0 16 -7 26 -16 16 -15 19 -14 31 5 7 12 18 21 25 21 7 0
13 4 13 8 0 15 108 114 151 139 16 10 29 21 29 25 0 4 7 8 15 8 8 0 15 5 15
11 0 5 4 8 9 5 5 -4 11 -2 13 2 6 17 112 71 119 61 3 -6 5 -27 3 -47z m-1289
24 c75 -12 104 -19 170 -42 38 -13 75 -26 80 -27 47 -14 198 -104 252 -152
166 -146 308 -372 340 -544 16 -88 28 -168 27 -178 -1 -7 -2 -19 -3 -26 -1
-14 -74 -17 -87 -4 -4 4 -8 31 -10 59 -1 29 -5 64 -9 78 -3 14 -8 36 -11 50
-11 47 -12 55 -13 58 -1 1 -1 5 0 8 0 4 -3 10 -8 13 -4 3 -16 29 -26 56 -61
173 -240 369 -422 462 -63 33 -132 61 -170 69 -5 1 -32 8 -60 14 -27 7 -72 14
-100 16 -27 2 -55 6 -60 8 -9 3 -12 53 -6 88 1 7 49 4 116 -6z m-10 -161 c163
-21 369 -130 483 -257 20 -23 42 -47 49 -53 18 -18 78 -115 107 -172 32 -65
65 -181 71 -257 3 -32 8 -62 11 -67 6 -10 4 -11 -49 -13 -43 -2 -49 4 -53 48
-4 48 -13 96 -31 156 -9 30 -16 58 -15 63 1 4 -2 7 -7 7 -5 0 -12 13 -16 30
-4 16 -11 30 -16 30 -5 0 -9 5 -9 11 0 16 -59 98 -110 153 -42 45 -140 125
-157 128 -5 0 -24 11 -43 23 -19 12 -53 28 -75 35 -22 7 -44 15 -50 19 -5 3
-14 6 -20 7 -5 1 -23 5 -40 8 -16 4 -52 9 -80 12 -58 6 -59 7 -61 42 -4 48 5
62 34 58 15 -2 50 -7 77 -11z m1298 3 c9 -25 -2 -73 -20 -86 -118 -84 -254
-234 -253 -279 1 -10 7 -29 15 -43 13 -24 14 -24 21 -5 7 18 54 84 80 111 5 7
21 25 35 40 38 45 109 105 117 100 4 -2 7 -141 7 -308 0 -370 5 -353 -109
-352 -42 0 -78 3 -81 6 -3 3 -8 34 -10 69 -3 35 -7 75 -9 89 -3 14 -7 43 -11
65 -10 59 -69 234 -105 307 -17 35 -24 55 -16 45 14 -18 17 -16 53 24 70 79
157 159 172 159 5 0 11 3 13 8 4 9 80 62 89 62 4 0 9 -6 12 -12z m-1312 -163
c30 -4 57 -9 61 -12 5 -2 16 -6 26 -8 10 -2 40 -13 68 -26 146 -67 263 -175
336 -309 26 -49 64 -163 72 -222 3 -21 6 -41 7 -45 5 -30 -3 -38 -39 -37 -50
0 -57 6 -60 46 -4 60 -32 150 -64 212 -29 54 -134 172 -193 216 -56 42 -184
90 -253 95 -50 3 -56 7 -58 43 -4 42 5 61 25 57 10 -2 42 -6 72 -10z m35 -173
c48 -15 144 -64 144 -74 0 -5 4 -7 8 -4 16 10 128 -119 159 -184 46 -94 52
-113 58 -180 l3 -46 -36 1 c-51 1 -58 8 -66 61 -8 59 -56 159 -98 205 -82 89
-183 140 -294 148 -6 1 -10 21 -10 47 l1 46 50 -5 c28 -3 64 -10 81 -15z m-31
-162 c89 -32 164 -99 205 -185 30 -61 48 -134 33 -136 -72 -10 -89 -2 -99 44
-18 86 -93 164 -183 192 l-58 17 1 45 1 44 35 -5 c20 -3 49 -10 65 -16z m-23
-166 c52 -27 92 -80 99 -134 4 -24 4 -25 -79 -25 -46 0 -87 5 -91 10 -6 8 -8
164 -2 172 3 5 43 -7 73 -23z"/>
<path d="M225 2212 c-26 -5 -46 -22 -39 -33 3 -5 2 -9 -3 -9 -4 0 -8 -71 -8
-157 l0 -158 28 1 c15 1 32 2 37 3 6 0 10 15 10 32 0 56 11 65 76 59 l59 -5 3
-39 c1 -22 5 -42 8 -45 7 -7 64 -8 65 -1 1 3 2 76 3 164 1 104 -3 164 -10 174
-9 12 -33 16 -110 16 -55 1 -108 0 -119 -2z m163 -129 c2 -29 0 -53 -5 -54 -4
0 -35 -1 -68 -2 l-60 -1 -3 56 c-3 55 -2 57 25 60 15 2 46 1 68 -2 l40 -5 3
-52z"/>
<path d="M188 1752 c-9 -10 -13 -66 -13 -177 l-1 -163 25 -5 c49 -10 51 -5 51
144 0 76 3 139 8 140 4 0 34 1 67 2 l60 1 1 -138 c1 -92 6 -141 13 -146 10 -5
30 -6 61 -1 3 1 5 75 5 165 0 114 -4 168 -13 178 -17 21 -247 21 -264 0z"/>
<path d="M174 1284 c0 -19 4 -34 10 -35 6 -1 25 -2 43 -3 18 -1 35 -5 39 -9 4
-3 6 -65 5 -137 -1 -126 0 -131 21 -139 50 -18 53 -10 53 135 0 83 3 138 10
142 5 4 25 7 44 7 29 0 36 4 42 26 3 15 4 31 0 36 -3 6 -62 10 -136 10 l-130
1 -1 -34z"/>
<path d="M234 872 c-31 -2 -44 -8 -51 -25 -7 -17 -11 -268 -4 -323 1 -16 47
-24 60 -11 6 6 11 39 11 74 l0 63 40 0 c34 0 42 -4 55 -30 8 -16 16 -33 17
-37 1 -5 7 -23 15 -40 11 -28 18 -33 48 -33 33 0 35 1 29 28 -4 15 -13 39 -20
54 -19 38 -17 53 8 70 19 13 22 24 23 92 2 107 -6 115 -110 119 -44 1 -99 1
-121 -1z m149 -81 c4 0 7 -14 7 -30 0 -28 -2 -29 -54 -33 -78 -5 -86 -1 -86
36 l0 32 63 -2 c34 -1 65 -2 70 -3z"/>
<path d="M304 475 c-12 -13 -19 -26 -17 -29 13 -13 77 30 67 45 -9 15 -28 9
-50 -16z"/>
<path d="M189 421 c-22 -9 -20 -338 1 -351 30 -19 238 -15 260 5 13 12 15 42
15 175 0 172 -3 181 -51 172 -26 -5 -27 -17 -26 -215 1 -45 -3 -67 -11 -68
-67 -6 -127 -4 -126 5 1 6 1 70 0 142 -1 129 -1 132 -24 136 -13 3 -30 2 -38
-1z"/>
</g>
</svg>
